<?xml version="1.0" encoding="UTF-8" standalone="no"?>
        <svg 
    viewBox="36.328125 -89.94140625 445.3125 39.2578125"
    width="408.984375"
    height="129.19921875"
   xmlns="http://www.w3.org/2000/svg"
   xmlns:svg="http://www.w3.org/2000/svg">
   <path d="M49.95-97.41Q49.95-98.88 51.42-100.12Q52.88-101.37 54.35-101.37L54.35-101.37Q57.71-101.37 59.55-98.07Q61.38-94.78 61.38-91.11L61.38-91.11Q61.38-90.09 60.50-88.33L60.50-88.33Q60.50-87.60 62.18-87.23Q63.87-86.87 64.89-86.06Q65.92-85.25 65.92-82.91L65.92-82.91Q65.92-80.57 64.31-79.54L64.31-79.54Q61.82-77.93 52.73-76.17Q43.65-74.41 39.70-74.41L39.70-74.41Q38.09-74.41 37.28-75Q36.47-75.59 36.47-77.05L36.47-77.05Q36.47-79.25 40.43-80.71L40.43-80.71L44.53-82.32Q53.61-86.28 56.10-86.43L56.10-86.43Q58.89-86.43 58.74-87.45L58.74-87.45Q55.66-89.21 52.81-92.07Q49.95-94.92 49.95-97.41L49.95-97.41ZM80.27-68.41Q80.27-72.07 81.45-79.54Q82.62-87.01 84.23-88.33L84.23-88.33Q85.55-89.36 86.87-89.36L86.87-89.36Q89.36-89.36 90.16-88.33Q90.97-87.30 91.26-85.25L91.26-85.25Q91.55-82.76 92.87-81.88L92.87-81.88Q96.39-82.03 102.25-84.81L102.25-84.81Q105.62-86.28 107.89-87.08Q110.16-87.89 112.65-87.89L112.65-87.89Q114.11-87.89 115.43-86.57Q116.75-85.25 116.75-83.79L116.75-83.79Q116.75-82.03 114.77-80.64Q112.79-79.25 110.01-77.93L110.01-77.93L109.86-72.80Q109.57-69.29 109.57-67.53L109.57-67.53Q109.57-58.74 111.04-58.74L111.04-58.74Q112.94-58.74 116.46-59.91L116.46-59.91Q116.89-60.06 118.58-60.50Q120.26-60.94 121.88-60.94L121.88-60.94Q123.78-60.94 125.10-59.77Q126.42-58.59 126.42-56.84L126.42-56.84Q126.42-54.93 124.00-53.10Q121.58-51.27 117.33-48.93L117.33-48.93Q114.40-47.46 112.72-46.29Q111.04-45.12 110.60-44.09L110.60-44.09Q110.01-42.63 109.28-26.51L109.28-26.51Q109.13-24.90 109.13-23.22Q109.13-21.53 108.98-20.21L108.98-20.21Q106.93 5.27 105.47 18.02L105.47 18.02Q105.18 20.95 103.93 23.14Q102.69 25.34 100.20 25.34L100.20 25.34Q97.85 25.34 96.31 23.29Q94.78 21.24 95.07 18.90L95.07 18.90L94.92 19.92Q95.21 10.55 97.56-7.91L97.56-7.91Q100.34-27.69 100.34-39.40L100.34-39.40Q100.34-40.43 100.05-41.02Q99.76-41.60 98.73-41.60L98.73-41.60Q95.95-41.60 90.09-40.43L90.09-40.43Q84.52-39.26 81.45-39.26L81.45-39.26Q77.05-39.26 74.19-40.43Q71.34-41.60 71.34-45.26L71.34-45.26Q71.34-47.61 72.88-49.51Q74.41-51.42 76.61-51.42L76.61-51.42Q77.49-51.42 78.96-50.76Q80.42-50.10 81.15-50.10L81.15-50.10Q84.23-50.10 87.38-50.83Q90.53-51.56 95.21-53.03L95.21-53.03L100.34-54.49Q100.34-57.71 100.93-63.87L100.93-63.87Q101.51-71.19 101.51-74.85L101.51-74.85L101.51-75.44Q98.44-74.85 95.21-73.68L95.21-73.68L91.70-72.66Q89.79-68.41 88.18-65.70Q86.57-62.99 84.38-62.99L84.38-62.99Q80.27-62.99 80.27-68.41L80.27-68.41ZM39.26-62.11Q39.26-64.16 40.28-65.04L40.28-65.04Q41.02-65.63 42.63-65.77Q44.24-65.92 44.68-65.92L44.68-65.92Q47.02-66.21 49.58-67.09Q52.15-67.97 52.73-68.12L52.73-68.12Q55.81-69.29 57.93-69.87Q60.06-70.46 62.26-70.46L62.26-70.46Q65.19-70.46 65.19-66.80L65.19-66.80Q65.19-65.04 64.75-64.16L64.75-64.16Q64.01-62.55 60.21-60.94Q56.40-59.33 51.93-58.15Q47.46-56.98 45.56-56.98L45.56-56.98Q39.26-56.98 39.26-62.11L39.26-62.11ZM36.33-43.95Q36.33-44.82 36.47-45.34Q36.62-45.85 37.21-46.58L37.21-46.58Q37.94-47.46 47.24-50.02Q56.54-52.59 58.45-52.59L58.45-52.59Q61.08-52.59 62.92-51.93Q64.75-51.27 64.75-49.22L64.75-49.22Q64.75-46.29 59.91-44.24Q55.08-42.19 48.85-41.16Q42.63-40.14 39.40-40.14L39.40-40.14Q38.23-40.14 37.28-41.46Q36.33-42.77 36.33-43.95L36.33-43.95ZM40.43-23.58Q40.43-24.32 44.60-30.03Q48.78-35.74 49.80-36.18L49.80-36.18Q50.39-36.18 50.83-35.16Q51.27-34.13 51.86-33.84L51.86-33.84Q53.32-33.11 55.96-33.11L55.96-33.11Q56.54-33.11 59.11-33.18Q61.67-33.25 62.99-31.64Q64.31-30.03 64.31-26.66L64.31-26.66Q64.31-22.27 63.57-19.78Q62.84-17.29 61.16-15.53Q59.47-13.77 55.81-11.43L55.81-11.43Q55.22-10.99 52.88-9.81L52.88-9.81Q44.53-5.27 43.80-3.81L43.80-3.81Q43.21-2.93 42.70-2.42Q42.19-1.90 41.31-1.90L41.31-1.90Q39.40-1.90 39.40-5.86L39.40-5.86Q39.40-7.91 39.84-10.11Q40.28-12.30 40.43-13.04L40.43-13.04Q41.46-17.14 41.46-20.21L41.46-20.21Q41.46-20.80 40.94-21.90Q40.43-23.00 40.43-23.58L40.43-23.58ZM54.93-22.71Q54.93-24.76 52.44-24.76L52.44-24.76Q49.51-24.76 48.19-21.83Q46.88-18.90 46.88-15.53L46.88-15.53Q46.88-15.23 47.09-14.87Q47.31-14.50 47.75-14.50L47.75-14.50Q54.93-18.31 54.93-22.71L54.93-22.71ZM227.49-83.20Q227.49-84.08 227.64-84.89Q227.78-85.69 228.37-86.43L228.37-86.43Q228.66-86.87 238.18-89.06Q247.71-91.26 249.17-91.26L249.17-91.26Q250.63-91.26 252.25-90.09Q253.86-88.92 253.86-87.45L253.86-87.45Q253.86-86.13 252.69-85.40Q251.51-84.67 248.73-83.50L248.73-83.50Q244.04-81.59 241.48-79.47Q238.92-77.34 238.92-72.95L238.92-72.95Q238.92-70.75 239.79-70.75L239.79-70.75Q240.38-70.75 244.19-72.51L244.19-72.51Q253.56-77.34 258.11-77.34L258.11-77.34Q260.60-77.34 262.57-76.39Q264.55-75.44 264.55-73.10L264.55-73.10Q264.55-71.48 263.45-70.68Q262.35-69.87 260.45-69.14L260.45-69.14Q258.54-68.41 257.74-67.82Q256.93-67.24 256.93-66.21L256.93-66.21Q256.93-63.72 257.67-61.08L257.67-61.08Q258.25-57.57 258.25-55.81L258.25-55.81Q258.25-48.34 257.59-39.40Q256.93-30.47 255.03-28.56L255.03-28.56Q254.30-27.83 253.56-27.61Q252.83-27.39 251.66-27.39L251.66-27.39Q247.27-27.39 247.27-33.84L247.27-33.84L247.41-49.80Q247.41-59.18 246.68-65.77L246.68-65.77Q246.09-65.48 244.19-64.82Q242.29-64.16 241.04-63.21Q239.79-62.26 239.21-60.94L239.21-60.94Q238.77-59.77 238.62-57.13Q238.48-54.49 238.48-53.76L238.48-53.76Q238.33-46.58 237.30-42.70Q236.28-38.82 232.76-38.82L232.76-38.82Q230.13-38.82 228.66-41.24Q227.20-43.65 227.20-46.44L227.20-46.44Q227.20-49.95 229.69-61.82Q232.18-73.68 233.50-76.46L233.50-76.46Q234.08-77.64 234.08-78.08L234.08-78.08Q234.08-79.25 232.03-79.47Q229.98-79.69 228.74-80.27Q227.49-80.86 227.49-83.20L227.49-83.20ZM197.02-76.03Q197.31-76.76 197.90-78.66Q198.49-80.57 199.66-81.45Q200.83-82.32 202.73-82.32L202.73-82.32Q206.25-82.32 206.25-80.86L206.25-80.86Q206.25-80.13 205.44-78.88Q204.64-77.64 204.64-76.90L204.64-76.90Q204.64-76.17 205.81-75.81Q206.98-75.44 208.30-75.15L208.30-75.15Q211.38-74.71 213.28-73.75Q215.19-72.80 215.19-70.46L215.19-70.46Q215.19-68.41 213.79-67.24Q212.40-66.06 209.62-64.75L209.62-64.75Q208.30-64.16 207.28-63.50Q206.25-62.84 206.25-62.11L206.25-62.11Q206.25-61.67 206.54-60.79Q206.84-59.91 206.84-59.33L206.84-59.33Q206.84-58.74 206.62-58.08Q206.40-57.42 206.40-56.84L206.40-56.84Q207.28-56.84 208.23-57.06Q209.18-57.28 210.06-57.28L210.06-57.28Q211.38-57.28 212.40-56.54Q213.43-55.81 213.43-54.49L213.43-54.49Q213.43-53.61 212.55-52.59Q211.67-51.56 210.64-50.68L210.64-50.68Q210.35-50.39 209.25-49.29Q208.15-48.19 207.86-47.17L207.86-47.17Q207.28-44.97 207.28-39.99L207.28-39.99Q206.98-32.08 205.74-27.76Q204.49-23.44 200.24-23.44L200.24-23.44Q198.93-23.44 198.05-24.17Q197.17-24.90 197.17-26.22L197.17-26.22Q197.17-26.95 197.46-28.20Q197.75-29.44 197.75-30.03L197.75-30.03Q197.75-32.23 197.17-36.91L197.17-36.91Q196.58-41.31 196.58-43.65L196.58-43.65L194.24-43.80Q193.07-43.80 191.02-42.92L191.02-42.92Q188.67-42.04 187.65-42.04L187.65-42.04Q186.04-42.04 184.72-42.85Q183.40-43.65 183.40-45.12L183.40-45.12Q183.40-47.61 185.52-48.85Q187.65-50.10 191.60-51.27L191.60-51.27Q193.36-51.71 194.90-52.37Q196.44-53.03 196.88-53.76L196.88-53.76Q197.31-54.49 197.53-57.06Q197.75-59.62 197.75-61.23L197.75-61.23Q197.75-63.87 196.00-64.67Q194.24-65.48 191.16-65.48L191.16-65.48L186.77-65.33Q183.98-65.33 182.45-66.21Q180.91-67.09 180.91-69.43L180.91-69.43Q180.91-73.10 185.74-74.34Q190.58-75.59 197.02-76.03L197.02-76.03ZM213.28-13.33Q213.28-16.99 216.43-19.48Q219.58-21.97 223.90-23.14Q228.22-24.32 231.74-24.32L231.74-24.32Q237.16-24.32 239.65-21.24Q242.14-18.16 243.16-12.45L243.16-12.45L243.31-11.43Q243.31-8.94 241.41-3.81L241.41-3.81Q241.55-3.37 242.58-3.15Q243.60-2.93 244.92-2.78L244.92-2.78Q248.73-2.49 251.15-1.39Q253.56-0.29 253.56 2.64L253.56 2.64Q253.56 5.27 249.02 6.74L249.02 6.74Q228.96 13.18 218.85 13.18L218.85 13.18Q215.33 13.18 214.31 10.47Q213.28 7.76 213.28 3.52L213.28 3.52Q213.28-1.32 214.16-4.54L214.16-4.54Q214.60-6.30 214.60-6.45L214.60-6.45Q214.60-7.62 214.01-9.96L214.01-9.96Q213.28-11.72 213.28-13.33L213.28-13.33ZM230.42-10.84Q230.42-11.87 229.47-12.38Q228.52-12.89 227.49-12.89L227.49-12.89Q224.41-12.89 221.19-11.57L221.19-11.57Q221.63-6.74 222.07-3.59Q222.51-0.44 223.68-0.44L223.68-0.44Q224.85-0.44 227.64-4.91Q230.42-9.38 230.42-10.84L230.42-10.84ZM388.33-78.22Q388.33-80.13 389.65-81.15Q390.97-82.18 393.90-83.50L393.90-83.50Q397.41-84.96 399.39-86.72Q401.37-88.48 401.37-91.99L401.37-91.99Q401.37-92.87 401.22-96.24Q401.07-99.61 402.39-101.73Q403.71-103.86 406.64-103.86L406.64-103.86Q408.69-103.86 410.30-101.29Q411.91-98.73 411.91-96.53L411.91-96.53Q411.91-94.92 411.18-93.02L411.18-93.02Q411.04-92.58 410.74-91.55Q410.45-90.53 410.45-89.50L410.45-89.50Q410.45-88.48 411.40-88.18Q412.35-87.89 414.26-87.74L414.26-87.74Q417.19-87.60 418.80-86.87Q420.41-86.13 420.41-83.79L420.41-83.79Q420.41-82.18 419.60-81.45Q418.80-80.71 417.04-79.98L417.04-79.98Q415.14-79.25 414.18-78.37Q413.23-77.49 413.23-75.59L413.23-75.59Q413.23-71.92 413.89-70.75Q414.55-69.58 415.87-69.14L415.87-69.14Q416.89-68.85 417.33-68.26Q417.77-67.68 417.77-65.92L417.77-65.92Q417.77-64.60 417.26-63.94Q416.75-63.28 415.72-62.55Q414.70-61.82 414.11-61.08L414.11-61.08L414.11-57.57Q414.11-52.44 415.72-51.05Q417.33-49.66 420.26-49.51L420.26-49.51Q422.17-49.51 422.97-49.07Q423.78-48.63 423.78-46.88L423.78-46.88Q423.78-44.24 421.73-42.85Q419.68-41.46 415.87-39.70L415.87-39.70Q414.84-39.26 414.55-38.45Q414.26-37.65 414.26-36.18L414.26-36.18Q414.26-33.84 413.67-31.20Q413.09-28.56 412.94-27.83L412.94-27.83Q411.77-23.73 411.62-21.39L411.62-21.39Q427.59-21.39 440.77-19.19L440.77-19.19Q442.68-18.90 443.99-18.02Q445.31-17.14 445.31-15.38L445.31-15.38Q445.31-14.21 444.14-13.04L444.14-13.04Q442.53-11.43 416.60-11.43L416.60-11.43Q405.18-11.43 396.75-12.23Q388.33-13.04 381.59-15.97L381.59-15.97Q380.86-12.30 380.27-4.98L380.27-4.98Q380.13-3.96 379.76 0.15Q379.39 4.25 378.52 7.91L378.52 7.91Q378.08 10.11 376.39 11.57Q374.71 13.04 372.51 13.04L372.51 13.04Q369.73 13.04 368.99 10.40Q368.26 7.76 368.26 3.96L368.26 3.96Q368.26-2.05 368.92-9.01Q369.58-15.97 370.31-22.56L370.31-22.56Q372.36-40.14 372.36-48.93L372.36-48.93Q372.36-58.89 372.07-63.87L372.07-63.87Q371.34-63.57 369.87-62.26Q368.41-60.94 367.53-60.94L367.53-60.94Q364.75-60.94 364.75-63.28L364.75-63.28Q364.75-65.63 367.31-70.31Q369.87-75 373.24-78.66Q376.61-82.32 379.10-82.32L379.10-82.32Q380.42-82.32 381.59-81.37Q382.76-80.42 382.76-79.10L382.76-79.10Q382.76-78.08 382.18-77.27Q381.59-76.46 380.42-75.29L380.42-75.29Q379.25-74.12 378.59-73.17Q377.93-72.22 377.93-71.19L377.93-71.19Q377.93-70.61 378.81-67.68L378.81-67.68Q381.45-57.28 381.74-54.49L381.74-54.49Q382.62-45.70 382.62-36.77L382.62-36.77Q382.62-34.72 382.32-30.62L382.32-30.62Q382.03-26.22 382.03-24.32L382.03-24.32Q382.03-22.85 386.65-21.90Q391.26-20.95 393.75-20.95L393.75-20.95Q399.46-20.95 399.76-21.09L399.76-21.09Q400.49-21.53 400.49-25.93L400.49-25.93Q400.78-28.42 401.37-30.76L401.37-30.76Q402.25-34.86 402.25-36.91L402.25-36.91Q402.25-38.23 400.85-38.60Q399.46-38.96 396.39-38.96L396.39-38.96Q392.72-38.96 390.67-39.62Q388.62-40.28 388.62-42.48L388.62-42.48Q388.62-44.97 390.75-46.00Q392.87-47.02 396.97-47.61L396.97-47.61Q397.41-47.75 399.54-48.12Q401.66-48.49 402.69-49.37L402.69-49.37Q403.56-50.24 403.56-56.10L403.56-56.10L403.56-57.28Q403.56-59.03 403.13-59.77L403.13-59.77Q402.69-60.35 399.76-60.35L399.76-60.35Q395.21-60.64 392.50-61.67Q389.79-62.70 389.79-65.92L389.79-65.92Q389.79-68.26 391.26-69.14Q392.72-70.02 395.36-70.02L395.36-70.02L398.44-69.87Q400.20-69.58 401.37-69.58L401.37-69.58Q404.00-69.58 404.74-71.12Q405.47-72.66 405.47-75.59L405.47-75.59Q405.47-77.05 404.74-77.05L404.74-77.05Q402.39-77.05 398.29-75.59L398.29-75.59Q393.90-74.12 391.70-74.12L391.70-74.12Q390.53-74.12 389.43-75.59Q388.33-77.05 388.33-78.22L388.33-78.22ZM332.96-62.99Q332.96-65.19 335.30-69.87Q337.65-74.56 340.80-78.30Q343.95-82.03 346.00-82.03L346.00-82.03Q347.90-82.03 349.00-80.13Q350.10-78.22 350.10-76.17L350.10-76.17Q350.10-74.71 349.58-73.39Q349.07-72.07 347.90-72.07L347.90-72.07Q347.46-72.07 346.66-72.44Q345.85-72.80 345.41-72.80L345.41-72.80Q344.38-72.80 342.63-70.46Q340.87-68.12 340.87-66.94L340.87-66.94L341.46-66.36Q342.77-66.36 346.88-68.70L346.88-68.70Q350.98-70.90 352.15-70.90L352.15-70.90Q353.61-70.90 355.22-70.09Q356.84-69.29 356.84-67.97L356.84-67.97Q356.84-66.50 352.00-58.45L352.00-58.45Q349.22-53.76 349.22-53.47L349.22-53.47Q349.22-52.73 352.00-51.86L352.00-51.86Q354.20-51.27 354.64-50.68L354.64-50.68Q355.66-49.22 355.66-46.44L355.66-46.44Q355.66-44.97 354.35-41.46Q353.03-37.94 351.20-35.23Q349.37-32.52 347.90-32.52L347.90-32.52Q347.31-32.52 346.88-33.11Q346.44-33.69 346.44-34.28L346.44-34.28Q346.44-36.47 348.05-39.40L348.05-39.40Q349.51-42.63 349.51-44.53L349.51-44.53Q349.51-45.26 349.07-45.78Q348.63-46.29 348.05-46.29L348.05-46.29Q347.46-46.29 346.22-45.78Q344.97-45.26 344.24-45.26L344.24-45.26Q342.77-45.26 341.09-46.58Q339.40-47.90 339.40-49.37L339.40-49.37Q339.40-50.39 340.50-52.00Q341.60-53.61 342.92-55.22L342.92-55.22Q344.82-57.57 345.78-59.03Q346.73-60.50 346.73-61.67L346.73-61.67Q345.41-61.67 342.48-60.79L342.48-60.79Q340.14-59.77 338.23-59.77L338.23-59.77Q336.77-59.77 334.86-60.72Q332.96-61.67 332.96-62.99L332.96-62.99ZM320.36-2.93Q320.36-5.27 321.61-12.38Q322.85-19.48 324.54-25.20Q326.22-30.91 327.39-30.91L327.39-30.91Q328.27-30.91 328.78-30.25Q329.30-29.59 329.81-28.20Q330.32-26.81 330.91-26.81L330.91-26.81Q332.81-26.81 334.42-26.22L334.42-26.22Q337.21-25.05 338.75-19.56Q340.28-14.06 340.28-9.96L340.28-9.96Q340.28-8.50 338.96-7.76Q337.65-7.03 336.18-7.03L336.18-7.03Q333.98-7.03 333.03-8.42Q332.08-9.81 331.20-12.60L331.20-12.60Q331.05-13.04 330.54-14.36Q330.03-15.67 329.30-16.55L329.30-16.55Q328.86-15.67 328.49-13.70Q328.13-11.72 327.98-10.99L327.98-10.99Q327.10-5.71 326.07-2.86Q325.05 0 323.14 0L323.14 0Q321.83 0 321.09-0.81Q320.36-1.61 320.36-2.93L320.36-2.93ZM344.24-23.00Q344.24-24.90 345.85-26.15Q347.46-27.39 349.51-27.39L349.51-27.39Q354.05-27.39 359.62-25.49Q365.19-23.58 365.19-20.07L365.19-20.07Q365.19-18.46 364.01-17.50Q362.84-16.55 361.23-16.55L361.23-16.55Q358.74-16.55 354.05-18.60L354.05-18.60Q349.95-20.36 347.90-20.36L347.90-20.36Q344.24-20.36 344.24-23.00L344.24-23.00Z"/>
    </svg>
        