<svg width="242" height="242" version="1.1" xmlns="http://www.w3.org/2000/svg" xmlns:xlink="http://www.w3.org/1999/xlink"><path d="M207.39 66.79L207.39 66.79Q207.39 69.45 204.25 70.66L204.25 70.66Q197.96 73.33 177.63 76.71L177.63 76.71Q170.13 77.92 165.53 79.13L165.53 79.13Q170.85 82.76 171.34 83.49L171.34 83.49L171.82 84.46Q171.82 84.70 170.37 94.38L170.37 94.38L167.95 126.08Q166.74 134.79 164.32 141.81L164.32 141.81Q163.59 142.54 161.66 142.54L161.66 142.54Q157.30 132.62 157.78 111.32L157.78 111.32Q158.03 90.75 154.40 81.31L154.40 81.31Q142.30 83.01 136.49 81.07L136.49 81.07L134.55 80.34Q132.37 99.46 121 115.68L121 115.68Q110.59 130.68 97.77 131.89L97.77 131.89L96.80 131.16Q123.90 106.24 123.90 73.57L123.90 73.57Q123.90 58.56 117.37 49.37L117.37 49.37Q116.89 44.53 122.94 45.74L122.94 45.74L133.83 48.88Q136.49 48.88 152.22 34.36L152.22 34.36Q158.51 28.56 158.99 27.10L158.99 27.10L160.20 22.51L160.20 22.26Q171.82 22.26 178.84 26.86L178.84 26.86Q182.95 29.52 182.71 33.15L182.71 33.15Q175.21 35.09 155.61 44.53L155.61 44.53Q144.47 50.09 136.97 52.03L136.97 52.03Q134.79 62.19 134.55 74.29L134.55 74.29Q156.33 72.84 177.39 67.03L177.39 67.03L191.42 62.68Q193.60 62.19 195.29 62.19L195.29 62.19Q201.83 62.19 207.39 66.79ZM106.72 74.78L106.96 76.47L85.91 86.88L85.67 87.12Q84.94 93.41 86.88 112.05L86.88 112.05Q87.60 118.10 87.60 122.45L87.60 122.45Q87.60 130.44 84.46 139.39L84.46 139.39Q81.80 146.65 78.41 143.99L78.41 143.99Q76.47 142.54 68.97 134.31L68.97 134.31Q65.82 130.68 62.92 128.74L62.92 128.74L55.18 123.42Q54.21 122.45 53.72 121.48L53.72 121.48L72.60 121.48Q75.26 120.27 75.26 117.13L75.26 117.13L75.26 92.20L73.81 92.20L37.75 109.63Q36.30 110.35 35.09 111.08L35.09 111.08Q27.59 111.08 18.15 103.82L18.15 103.82Q19.84 105.03 15.97 102.12L15.97 102.12Q15.49 97.53 20.33 97.53L20.33 97.53L25.65 97.28Q29.77 97.04 40.41 94.38L40.41 94.38L72.60 83.97Q74.29 83.49 75.02 83.73L75.02 83.73L75.26 59.77L50.82 64.61Q36.30 66.31 33.64 58.56L33.64 58.56Q37.51 57.35 59.29 53.97L59.29 53.97Q61.47 53.48 63.40 53.24L63.40 53.24L75.02 50.58L75.02 33.64Q74.29 24.20 68.97 18.88L68.97 18.88Q68.97 15.97 71.63 15.25L71.63 15.25Q83.73 16.94 89.06 22.99L89.06 22.99L85.67 45.25L85.67 47.19Q90.02 45.50 97.53 46.71L97.53 46.71Q106.00 48.16 105.75 52.76L105.75 52.76L104.06 54.69L85.43 57.60L85.43 79.86Q86.88 79.62 99.22 76.23L99.22 76.23Q103.33 75.02 106.72 74.78L106.72 74.78ZM151.73 186.58L151.73 186.58L158.75 193.36Q157.54 197.71 132.86 196.99L132.86 196.99Q99.22 198.44 85.43 200.86L85.43 200.86Q84.70 206.18 83.49 207.64L83.49 207.64Q81.31 207.64 77.20 202.31L77.20 202.31Q75.02 198.92 71.87 184.65L71.87 184.65Q71.63 182.47 71.15 181.02L71.15 181.02Q67.28 167.22 60.74 153.67L60.74 153.67L61.95 151.49Q63.40 151.49 76.23 153.43L76.23 153.43Q80.34 154.15 83.49 153.91L83.49 153.91Q98.98 153.19 127.53 146.17L127.53 146.17L141.81 142.05L142.30 142.05Q149.07 141.09 160.45 147.14L160.45 147.14Q170.13 152.22 170.13 157.30L170.13 157.30Q170.13 159.96 163.59 166.25L163.59 166.25Q161.41 168.19 160.69 169.16L160.69 169.16Q156.09 175.69 151.73 186.58ZM144.96 156.82L144.96 156.82Q142.54 152.94 136.00 153.19L136.00 153.19L134.79 153.43L79.86 161.90L84.70 191.91Q112.77 189.97 138.18 185.37L138.18 185.37L143.99 166.25Q145.20 160.93 144.96 156.82Z" stroke="#000" fill="black" /></svg>