<svg width="242" height="242" version="1.1" xmlns="http://www.w3.org/2000/svg" xmlns:xlink="http://www.w3.org/1999/xlink"><path d="M167.46 58.08L167.46 58.08Q159.24 58.08 141.81 37.99L141.81 37.99Q141.81 35.57 142.78 34.36L142.78 34.36Q152.46 34.61 162.38 39.93L162.38 39.93Q167.95 42.83 168.92 45.74L168.92 45.74Q171.58 53.00 169.40 56.63L169.40 56.63Q168.67 57.60 167.46 58.08ZM208.85 166.74L208.85 166.74Q208.85 169.40 206.67 170.13L206.67 170.13L188.28 170.61Q165.29 171.58 149.80 173.51L149.80 173.51L128.50 177.14L120.52 177.14Q118.34 176.66 116.40 176.18L116.40 176.18Q114.47 199.89 112.53 204.01L112.53 204.01L111.56 205.70Q106.00 210.54 101.16 197.47L101.16 197.47Q98.74 191.18 98.74 187.55L98.74 187.55Q98.74 186.58 99.95 180.53L99.95 180.53Q106.72 151.25 106.96 120.27L106.96 120.27Q107.21 93.65 100.43 85.43L100.43 85.43Q92.44 95.11 86.64 99.46L86.64 99.46L83.97 99.46L84.46 96.56Q114.22 50.82 117.13 29.04L117.13 29.04Q117.37 26.86 115.19 17.67L115.19 17.67Q114.95 16.46 114.95 15.49L114.95 15.49L117.61 14.04Q128.50 14.28 135.52 24.20L135.52 24.20Q135.52 27.35 131.41 33.64L131.41 33.64L129.47 37.03Q125.60 45.74 109.87 71.39L109.87 71.39Q108.17 74.29 106.72 76.47L106.72 76.47Q107.69 77.68 113.50 83.25L113.50 83.25Q118.58 87.85 118.58 91.96L118.58 91.96L117.85 95.35Q114.71 108.17 115.92 157.06L115.92 157.06Q115.92 165.53 115.92 169.88L115.92 169.88L151.49 165.04L151.73 139.88L137.70 139.88Q131.65 139.39 128.02 136.00L128.02 136.00L129.95 134.07Q148.59 130.92 151.49 130.20L151.49 130.20L151.73 112.53Q138.18 113.50 134.79 112.77L134.79 112.77Q130.92 112.05 128.50 109.87L128.50 109.87Q128.74 107.69 148.35 104.30L148.35 104.30Q150.77 104.06 151.49 103.82L151.49 103.82Q151.49 92.69 148.10 81.80L148.10 81.80Q132.37 82.76 128.26 81.80L128.26 81.80L123.18 80.10L121.73 79.13Q121.97 77.68 123.90 77.20L123.90 77.20L147.62 72.84L174.97 64.37Q177.39 63.89 178.60 63.89L178.60 63.89Q185.37 63.89 189.49 68.00L189.49 68.00Q189.73 69.94 188.76 70.91L188.76 70.91Q188.28 71.15 187.31 71.63L187.31 71.63Q182.47 74.05 163.59 78.41L163.59 78.41Q159.96 79.13 157.54 79.86L157.54 79.86Q161.66 81.80 163.35 85.43L163.35 85.43L163.11 99.95L163.11 100.19Q168.92 96.80 177.39 97.04L177.39 97.04Q185.13 97.28 184.89 102.85L184.89 102.85Q181.26 105.27 170.37 107.45L170.37 107.45Q165.77 108.42 163.11 109.63L163.11 109.63Q161.90 116.40 161.90 126.81L161.90 126.81Q177.39 122.21 182.95 127.53L182.95 127.53L184.16 128.74Q184.16 131.65 181.74 132.13L181.74 132.13L161.90 136.97L160.69 163.11Q163.35 163.11 180.05 159.72L180.05 159.72Q198.68 155.85 206.43 163.83L206.43 163.83Q207.64 165.04 208.85 166.74ZM88.09 62.19L88.57 63.65Q87.36 66.55 80.83 73.08L80.83 73.08Q79.13 74.78 78.17 75.99L78.17 75.99Q61.47 95.83 48.40 114.71L48.40 114.71L43.80 121.97L43.80 122.69L46.46 122.69Q61.23 116.64 72.60 114.47L72.60 114.47Q68.97 106.48 70.66 103.82L70.66 103.82Q78.17 104.79 85.91 114.71L85.91 114.71L86.39 121.73L86.39 121.97Q81.80 127.78 75.99 119.55L75.99 119.55L74.78 117.61Q53.24 125.60 36.06 139.63L36.06 139.63Q32.19 139.63 27.83 134.79L27.83 134.79Q23.72 130.20 29.77 125.11L29.77 125.11Q36.06 120.03 36.78 118.82L36.78 118.82Q37.27 118.10 37.51 117.13L37.51 117.13Q43.80 109.38 56.87 90.27L56.87 90.27Q38.96 91.96 27.10 98.98L27.10 98.98Q22.99 98.98 19.60 92.20L19.60 92.20Q18.63 90.02 18.39 89.54L18.39 89.54L18.88 87.12Q36.54 72.12 47.92 39.45L47.92 39.45Q52.76 25.41 50.34 19.36L50.34 19.36L49.85 18.39Q49.85 15.49 51.55 15.49L51.55 15.49Q59.29 15.49 68.73 26.38L68.73 26.38L68.73 30.49Q54.93 49.61 36.06 81.80L36.06 81.80Q36.06 83.01 37.51 84.46L37.51 84.46Q60.98 83.73 61.23 83.73L61.23 83.73Q69.21 68.00 70.42 60.98L70.42 60.98Q71.15 57.60 71.15 54.21L71.15 54.21Q75.50 51.06 83.73 57.60L83.73 57.60Q86.64 60.02 88.09 62.19L88.09 62.19ZM87.85 149.31L87.85 149.31Q87.85 157.78 84.46 159.96L84.46 159.96Q80.34 159.96 73.33 147.62L73.33 147.62Q69.21 140.12 69.21 136.97L69.21 136.97Q70.18 136.00 73.33 136.97L73.33 136.97Q83.01 143.02 84.94 144.96Q86.88 146.89 87.85 149.31ZM60.50 170.85L60.50 170.85Q55.18 170.85 46.22 155.36L46.22 155.36Q45.01 152.70 44.53 151.98L44.53 151.98Q44.53 149.31 45.74 147.86L45.74 147.86Q62.92 153.91 63.65 164.08L63.65 164.08Q63.89 166.74 62.92 168.67L62.92 168.67Q61.95 170.13 60.50 170.85ZM36.78 176.42L36.78 176.42Q36.78 187.07 32.19 190.70L32.19 190.70Q28.07 190.70 25.17 186.82L25.17 186.82L14.52 162.14Q13.79 159.96 14.76 158.03L14.76 158.03Q15.49 157.06 16.70 156.33L16.70 156.33Q32.91 166.74 36.78 176.42Z" stroke="#000" fill="black" /></svg>