<svg width="242" height="242" version="1.1" xmlns="http://www.w3.org/2000/svg" xmlns:xlink="http://www.w3.org/1999/xlink"><path d="M92.69 53.43L92.69 53.43Q87.36 53.43 83.25 50.28L83.25 50.28L67.28 37.22Q64.37 34.55 63.65 33.34L63.65 33.34Q62.92 31.89 63.65 30.20L63.65 30.20Q64.37 28.75 66.07 28.99L66.07 28.99Q86.15 30.44 92.69 39.15L92.69 39.15Q94.62 41.57 94.86 44.23L94.86 44.23L94.62 50.28Q94.14 52.95 92.69 53.43ZM151.73 134.74L151.73 134.74L151.25 136.68L151.98 188.71Q151.73 214.60 147.86 228.15L147.86 228.15L145.44 230.82Q143.26 230.82 141.81 227.67L141.81 227.67Q137.94 216.54 139.63 151.68L139.63 151.68Q139.88 141.03 139.88 136.92L139.88 136.92Q137.46 136.92 120.03 140.55L120.03 140.55Q99.46 144.91 93.41 137.16L93.41 137.16Q93.17 136.68 92.69 136.19L92.69 136.19Q92.69 134.74 95.11 134.02L95.11 134.02L138.91 128.69L139.88 127.97Q139.88 107.15 133.83 91.67L133.83 91.67Q124.63 90.94 121.48 88.04L121.48 88.04L110.59 101.35Q104.30 107.88 100.19 107.88L100.19 107.88L100.19 104.98Q130.68 55.12 131.41 36.25L131.41 36.25L128.26 26.57Q128.02 23.91 131.16 23.18L131.16 23.18Q135.76 21.97 145.20 28.50L145.20 28.50Q149.07 31.17 150.52 33.34L150.52 33.34Q152.22 36.01 146.89 43.51L146.89 43.51Q145.93 44.96 145.44 45.69L145.44 45.69Q137.70 63.11 123.42 83.92L123.42 83.92Q135.28 82.95 159.24 74.73L159.24 74.73Q167.46 72.06 172.55 70.61L172.55 70.61Q175.45 69.89 178.35 69.89L178.35 69.89Q184.40 69.89 190.45 73.76L190.45 73.76L190.70 74.97L190.94 75.21Q190.70 77.39 186.10 78.60L186.10 78.60Q184.16 79.32 156.82 87.07L156.82 87.07Q151.73 88.52 147.86 89.97L147.86 89.97Q152.94 92.63 153.91 96.75L153.91 96.75Q151.98 108.36 151.73 126.51L151.73 126.51Q157.54 126.51 176.42 122.16L176.42 122.16Q186.10 119.98 192.63 119.98L192.63 119.98Q204.01 119.98 210.78 125.30L210.78 125.30Q212.48 126.76 213.20 128.21L213.20 128.21Q214.65 130.63 211.99 132.32L211.99 132.32Q211.27 133.05 210.30 133.05L210.30 133.05Q204.73 133.77 191.18 133.29L191.18 133.29Q171.34 133.77 151.73 134.74ZM100.19 72.06L100.19 72.06Q100.19 74.00 97.28 74.97L97.28 74.97L76.71 79.32Q45.98 86.58 27.35 94.09L27.35 94.09Q14.04 94.09 8.95 87.31L8.95 87.31Q8.95 83.44 20.09 82.23L20.09 82.23Q22.75 81.74 23.47 81.74L23.47 81.74Q32.43 80.05 45.98 76.90L45.98 76.90L78.41 67.95Q83.01 66.98 87.12 66.50L87.12 66.50Q91.48 66.01 95.35 67.47L95.35 67.47Q98.98 69.16 100.19 72.06ZM90.99 102.07L90.99 102.07Q90.99 104.01 89.06 105.22L89.06 105.22Q83.25 108.36 62.68 111.27L62.68 111.27Q59.05 111.99 57.35 111.99L57.35 111.99Q51.55 111.99 46.95 110.30L46.95 110.30Q44.77 108.12 44.77 107.88L44.77 107.88Q49.85 105.22 75.75 99.17L75.75 99.17Q80.59 97.96 81.55 97.96L81.55 97.96Q87.36 97.96 90.99 102.07ZM88.33 126.51L88.33 126.51Q88.09 130.63 71.15 133.53L71.15 133.53Q51.55 136.92 46.71 132.81L46.71 132.81Q45.74 131.84 45.74 130.87L45.74 130.87Q52.51 127.48 73.33 123.13L73.33 123.13Q77.92 122.16 79.62 122.16L79.62 122.16Q85.18 122.16 88.33 126.51ZM83.25 168.14L79.13 182.42L84.22 186.05Q85.18 187.01 85.18 188.47L85.18 188.47L83.73 189.68Q68.49 191.85 49.61 196.94L49.61 196.94Q49.61 203.71 48.40 204.44L48.40 204.44Q41.38 202.99 39.45 192.34L39.45 192.34Q35.57 174.43 27.35 158.22L27.35 158.22Q27.35 156.04 31.46 156.04L31.46 156.04Q38.72 159.18 52.76 153.86L52.76 153.86Q57.35 152.17 59.05 151.68L59.05 151.68L70.91 146.36Q72.84 145.63 75.02 145.63L75.02 145.63L88.09 152.65Q92.44 155.07 86.39 163.30L86.39 163.30Q83.73 167.17 83.25 168.14L83.25 168.14ZM70.42 159.18L70.42 159.18Q69.45 157.73 64.61 157.25L64.61 157.25L45.74 162.57Q44.29 163.06 43.08 163.54L43.08 163.54Q44.53 173.95 48.88 189.19L48.88 189.19L66.79 184.11L70.18 163.30Q70.42 161.12 70.42 159.18Z" stroke="#000" fill="black" /></svg>